<svg width="125" height="43" viewBox="0 0 125 43" fill="none" xmlns="http://www.w3.org/2000/svg">
<mask id="mask0_349_8317" style="mask-type:alpha" maskUnits="userSpaceOnUse" x="0" y="0" width="36" height="43">
<path fill-rule="evenodd" clip-rule="evenodd" d="M17.3699 0C24.0011 0 29.4729 4.89957 30.2727 11.2313C31.9456 11.2313 33.3382 12.5361 33.4734 14.23L35.2398 36.3607C35.5253 39.9373 32.7452 43 29.213 43H6.04698C2.51485 43 -0.265297 39.9373 0.0201777 36.3607L1.82861 13.7033C1.94007 12.3069 3.08809 11.2313 4.46713 11.2313C5.267 4.89957 10.7388 0 17.3699 0ZM11.8027 12.8815C11.4111 11.885 10.4615 11.2313 9.40538 11.2313C10.1584 7.56954 13.4381 4.81343 17.3699 4.81343C21.3018 4.81343 24.5815 7.56954 25.3345 11.2313C24.5924 11.2313 23.9253 11.6906 23.6502 12.3907L20.4379 20.5663C19.4253 23.1433 15.8347 23.1433 14.8221 20.5663L11.8027 12.8815Z" fill="#095AE3"/>
</mask>
<g mask="url(#mask0_349_8317)">
<rect width="45.7874" height="7.63122" transform="matrix(0.7015 0.712669 -0.7015 0.712669 16.9298 -6.52286)" fill="#095AE3"/>
<rect width="45.7874" height="7.63122" transform="matrix(0.7015 0.712669 -0.7015 0.712669 11.5763 -1.08409)" fill="#095AE3"/>
<rect width="45.7874" height="7.63122" transform="matrix(0.7015 0.712669 -0.7015 0.712669 6.2229 4.35469)" fill="#095AE3"/>
<rect width="45.7874" height="7.63122" transform="matrix(0.7015 0.712669 -0.7015 0.712669 0.869385 9.79347)" fill="#095AE3"/>
<rect width="45.7874" height="7.63122" transform="matrix(0.7015 0.712669 -0.7015 0.712669 -4.48267 15.2322)" fill="#095AE3"/>
<rect width="45.7874" height="7.63122" transform="matrix(0.7015 0.712669 -0.7015 0.712669 -9.83618 20.6703)" fill="#095AE3"/>
</g>
<path d="M43.5746 6.61946C44.1252 6.61946 44.5672 6.48146 44.9007 6.20545C45.2372 5.92945 45.4054 5.54918 45.4054 5.06464C45.4054 4.78864 45.3503 4.56937 45.2402 4.40684C45.1301 4.24124 44.9756 4.1063 44.7768 4.00203C44.581 3.89777 44.3516 3.79657 44.0885 3.69843C43.9141 3.63096 43.7459 3.56196 43.5837 3.49143C43.4216 3.4209 43.2885 3.3381 43.1845 3.24303C43.0805 3.14489 43.0285 3.02376 43.0285 2.87962C43.0285 2.69256 43.1004 2.54076 43.2442 2.42422C43.388 2.30462 43.5761 2.24482 43.8086 2.24482C44.194 2.24482 44.5458 2.41349 44.8639 2.75082L45.2219 2.20802C44.7783 1.81548 44.3057 1.61921 43.804 1.61921C43.492 1.61921 43.2136 1.67595 42.9689 1.78942C42.7241 1.90288 42.5314 2.05928 42.3907 2.25862C42.2531 2.45795 42.1842 2.68642 42.1842 2.94403C42.1842 3.18323 42.2423 3.38103 42.3586 3.53743C42.4779 3.69077 42.6293 3.81803 42.8129 3.91923C42.9964 4.02043 43.1861 4.1109 43.3818 4.19064C43.6266 4.2857 43.83 4.37004 43.9921 4.44364C44.1573 4.51724 44.2812 4.60311 44.3638 4.70124C44.4494 4.79631 44.4923 4.92818 44.4923 5.09684C44.4923 5.36058 44.402 5.56758 44.2215 5.71785C44.0441 5.86812 43.8269 5.94325 43.57 5.94325C43.3069 5.94325 43.0606 5.86812 42.8312 5.71785C42.6018 5.56758 42.406 5.35598 42.2439 5.08304L41.8171 5.63505C41.9946 5.95092 42.2332 6.19472 42.533 6.36646C42.8358 6.53512 43.183 6.61946 43.5746 6.61946Z" fill="#7B7D81"/>
<path d="M46.9194 6.47226H47.8096V3.37643C47.8096 3.20163 47.8647 3.03449 47.9748 2.87502C48.088 2.71556 48.2394 2.58676 48.4291 2.48862C48.6218 2.38742 48.8359 2.33682 49.0715 2.33682C49.4079 2.33682 49.6771 2.44722 49.879 2.66802C50.0809 2.88882 50.1819 3.18476 50.1819 3.55583V6.47226H51.0721V3.40863C51.0721 3.22769 51.1256 3.05596 51.2327 2.89342C51.3428 2.72782 51.4912 2.59442 51.6778 2.49322C51.8674 2.38895 52.08 2.33682 52.3156 2.33682C52.6551 2.33682 52.9274 2.45182 53.1323 2.68182C53.3373 2.91183 53.4398 3.22309 53.4398 3.61563V6.47226H54.33V3.36723C54.33 2.81216 54.1663 2.38129 53.839 2.07462C53.5117 1.76795 53.0972 1.61461 52.5955 1.61461C52.2253 1.61461 51.9026 1.70048 51.6273 1.87222C51.352 2.04395 51.1164 2.28009 50.9206 2.58062C50.8075 2.28315 50.6071 2.04855 50.3195 1.87682C50.032 1.70201 49.6986 1.61461 49.3192 1.61461C48.7135 1.61461 48.2103 1.86608 47.8096 2.36902V1.76182H46.9194V6.47226Z" fill="#7B7D81"/>
<path d="M58.1238 6.61946C58.5123 6.61946 58.8672 6.52899 59.1884 6.34806C59.5096 6.16712 59.7727 5.91412 59.9776 5.58905V6.47226H60.8678V1.76182H59.9776V2.62202C59.7971 2.30615 59.5417 2.05928 59.2113 1.88142C58.884 1.70355 58.5215 1.61461 58.1238 1.61461C57.6742 1.61461 57.2734 1.72348 56.9216 1.94122C56.5698 2.15895 56.293 2.45642 56.0911 2.83362C55.8892 3.20776 55.7883 3.63403 55.7883 4.11244C55.7883 4.59697 55.8907 5.02784 56.0957 5.40505C56.3037 5.78225 56.5836 6.07972 56.9354 6.29745C57.2903 6.51212 57.6864 6.61946 58.1238 6.61946ZM58.3624 5.85125C58.0443 5.85125 57.7613 5.77765 57.5136 5.63045C57.2658 5.48018 57.07 5.27471 56.9262 5.01404C56.7855 4.75031 56.7152 4.45131 56.7152 4.11704C56.7152 3.7797 56.7855 3.4807 56.9262 3.22003C57.07 2.95936 57.2658 2.75542 57.5136 2.60822C57.7613 2.45795 58.0443 2.38282 58.3624 2.38282C58.6836 2.38282 58.9666 2.45795 59.2113 2.60822C59.4591 2.75542 59.6534 2.95936 59.7941 3.22003C59.9348 3.4807 60.0052 3.7797 60.0052 4.11704C60.0052 4.45437 59.9348 4.75337 59.7941 5.01404C59.6534 5.27471 59.4591 5.48018 59.2113 5.63045C58.9666 5.77765 58.6836 5.85125 58.3624 5.85125Z" fill="#7B7D81"/>
<path d="M62.7464 6.47226H63.6366V3.50523C63.6366 3.31203 63.6932 3.13109 63.8064 2.96243C63.9226 2.79376 64.0725 2.65729 64.256 2.55302C64.4426 2.44569 64.6384 2.39202 64.8434 2.39202C64.9535 2.39202 65.0713 2.40735 65.1967 2.43802C65.3221 2.46869 65.4322 2.51009 65.5271 2.56222L65.8942 1.80782C65.784 1.74955 65.6525 1.70355 65.4995 1.66981C65.3496 1.63301 65.2013 1.61461 65.0544 1.61461C64.4273 1.61461 63.9547 1.89368 63.6366 2.45182V1.76182H62.7464V6.47226Z" fill="#7B7D81"/>
<path d="M68.2976 6.61946C68.631 6.61946 68.9262 6.54279 69.1832 6.38946L68.9583 5.67645C68.8237 5.77765 68.6708 5.82825 68.4995 5.82825C68.1446 5.82825 67.9672 5.58598 67.9672 5.10144V2.43802H69.096V1.76182H67.9672V0H67.077V1.76182H66.5539V2.43802H67.077V5.15664C67.077 5.61972 67.1841 5.98005 67.3982 6.23765C67.6123 6.49219 67.9121 6.61946 68.2976 6.61946Z" fill="#7B7D81"/>
<path d="M121.614 10.3201C122.229 10.3201 122.79 10.1691 123.299 9.86704C123.813 9.56502 124.224 9.15549 124.531 8.63847C124.844 8.11633 125 7.53532 125 6.89544C125 6.25555 124.846 5.67454 124.539 5.1524C124.232 4.63026 123.821 4.21561 123.307 3.90847C122.798 3.59621 122.234 3.44008 121.614 3.44008C120.984 3.44008 120.412 3.59877 119.898 3.91615C119.389 4.22841 118.984 4.64817 118.681 5.17544C118.379 5.69758 118.228 6.27091 118.228 6.89544C118.228 7.52508 118.382 8.09841 118.689 8.61543C118.996 9.13246 119.404 9.5471 119.913 9.85936C120.427 10.1665 120.994 10.3201 121.614 10.3201ZM121.621 9.26043C121.193 9.26043 120.803 9.15549 120.45 8.94561C120.097 8.73061 119.815 8.44395 119.603 8.08561C119.392 7.72728 119.286 7.33055 119.286 6.89544C119.286 6.46544 119.389 6.06871 119.596 5.70526C119.802 5.3418 120.08 5.05002 120.427 4.8299C120.78 4.60978 121.176 4.49972 121.614 4.49972C122.042 4.49972 122.433 4.60722 122.785 4.82222C123.138 5.0321 123.42 5.31877 123.632 5.68222C123.849 6.04055 123.957 6.44496 123.957 6.89544C123.957 7.34591 123.849 7.75032 123.632 8.10865C123.415 8.46698 123.131 8.74853 122.778 8.95329C122.425 9.15805 122.04 9.26043 121.621 9.26043ZM120.571 8.32365H121.417V7.32544H121.425L122.173 8.32365H123.231L122.324 7.23329C122.471 7.15651 122.591 7.04389 122.687 6.89544C122.788 6.74698 122.838 6.5627 122.838 6.34258C122.838 6.00984 122.74 5.7718 122.544 5.62847C122.347 5.48002 122.108 5.40579 121.826 5.40579H120.571V8.32365ZM121.417 6.63436V6.08151H121.553C121.619 6.08151 121.7 6.0943 121.795 6.1199C121.896 6.14038 121.946 6.22484 121.946 6.37329C121.946 6.50127 121.901 6.57805 121.81 6.60365C121.725 6.62413 121.639 6.63436 121.553 6.63436H121.417Z" fill="#010101"/>
<path d="M85.6939 21.6276H89.8417V18.0347L93.6704 21.6276H98.9947L93.5508 16.4127L98.7753 11.1158H93.4112L89.8417 14.6471V3.97099H85.6939V21.6276Z" fill="#010101"/>
<path d="M41.8171 21.6276H45.9649V15.7352C45.9649 15.2425 46.0845 14.8592 46.3238 14.5855C46.5698 14.3117 46.9055 14.1749 47.3309 14.1749C47.7829 14.1749 48.1252 14.322 48.3578 14.6163C48.5971 14.9037 48.7168 15.2835 48.7168 15.7558V21.6276H52.8645V15.5915C52.8645 15.1467 52.9842 14.8011 53.2235 14.5547C53.4694 14.3015 53.8051 14.1749 54.2305 14.1749C54.6626 14.1749 55.0016 14.3152 55.2475 14.5958C55.4935 14.8763 55.6164 15.263 55.6164 15.7558V21.6276H55.6248V21.6713H59.7726V19.3692H59.7642V14.606C59.7642 13.8532 59.598 13.1894 59.2657 12.6145C58.9333 12.0397 58.478 11.5914 57.8997 11.2697C57.3214 10.9481 56.66 10.7873 55.9155 10.7873C55.2508 10.7873 54.6426 10.9344 54.0909 11.2287C53.5459 11.5161 52.9908 11.9849 52.4258 12.635C52.1267 12.0807 51.6581 11.6359 51.02 11.3005C50.3819 10.9584 49.6906 10.7873 48.9461 10.7873C48.4409 10.7873 47.9623 10.8865 47.5103 11.085C47.0583 11.2834 46.5432 11.6222 45.9649 12.1012V11.1158H41.8171V21.6276Z" fill="#010101"/>
<path d="M59.7726 23.3913H55.6248V37.0258H59.7726V23.3913Z" fill="#010101"/>
<path fill-rule="evenodd" clip-rule="evenodd" d="M66.1419 21.9561C67.252 21.9561 68.2889 21.5728 69.2528 20.8064V21.6276H73.4005V11.1158H69.2528V11.7933C68.3886 11.1226 67.3517 10.7873 66.1419 10.7873C65.1515 10.7873 64.2774 11.0336 63.5197 11.5264C62.7619 12.0191 62.167 12.6864 61.7349 13.5281C61.3095 14.3631 61.0968 15.3041 61.0968 16.3511C61.0968 17.4324 61.3228 18.3974 61.7748 19.246C62.2268 20.0878 62.835 20.7516 63.5994 21.2375C64.3638 21.7166 65.2113 21.9561 66.1419 21.9561ZM67.4182 18.3426C66.8598 18.3426 66.3978 18.1579 66.0323 17.7883C65.6667 17.4119 65.4839 16.9397 65.4839 16.3717C65.4839 15.8037 65.6667 15.3349 66.0323 14.9653C66.4045 14.5889 66.8665 14.4007 67.4182 14.4007C67.9699 14.4007 68.4252 14.5889 68.7841 14.9653C69.1497 15.3349 69.3325 15.8037 69.3325 16.3717C69.3325 16.9397 69.1531 17.4119 68.7941 17.7883C68.4352 18.1579 67.9765 18.3426 67.4182 18.3426Z" fill="#010101"/>
<path d="M79.8898 21.6276H75.742V11.1158H79.8898V12.594C80.3152 12.026 80.8104 11.5845 81.3754 11.2697C81.9471 10.9481 82.5353 10.7873 83.1402 10.7873C83.5324 10.7873 83.9478 10.8557 84.3865 10.9926C84.8252 11.1294 85.1875 11.3074 85.4733 11.5264L83.7385 15.1193C83.4925 14.9277 83.2 14.7737 82.861 14.6573C82.5287 14.541 82.2229 14.4828 81.9437 14.4828C81.5915 14.4828 81.2558 14.5786 80.9367 14.7703C80.6243 14.955 80.3717 15.198 80.179 15.4991C79.9862 15.8002 79.8898 16.1253 79.8898 16.4743V21.6276Z" fill="#010101"/>
<path fill-rule="evenodd" clip-rule="evenodd" d="M106.632 21.217C105.728 21.7097 104.718 21.9561 103.601 21.9561C102.471 21.9561 101.454 21.7097 100.55 21.217C99.6528 20.7242 98.9415 20.057 98.4164 19.2152C97.8913 18.3666 97.6287 17.4119 97.6287 16.3511C97.6287 15.2972 97.888 14.3528 98.4064 13.5179C98.9249 12.6761 99.6295 12.0123 100.52 11.5264C101.411 11.0336 102.411 10.7873 103.521 10.7873C104.585 10.7873 105.515 11.0165 106.313 11.4751C107.117 11.9267 107.746 12.5598 108.198 13.3742C108.65 14.1817 108.876 15.1227 108.876 16.1972C108.876 16.2861 108.872 16.3717 108.866 16.4538C108.866 16.5291 108.856 16.7002 108.836 16.9671H101.916C101.916 17.4735 102.086 17.8704 102.425 18.1579C102.764 18.4453 103.236 18.589 103.84 18.589C104.213 18.589 104.532 18.5206 104.798 18.3837C105.07 18.2468 105.386 18.0005 105.745 17.6446L108.716 19.1639C108.237 20.033 107.543 20.7174 106.632 21.217ZM103.412 13.7232C102.508 13.7232 102.049 14.1338 102.036 14.955H104.827C104.701 14.1338 104.229 13.7232 103.412 13.7232Z" fill="#010101"/>
<path d="M114.498 21.9561C114.983 21.9561 115.482 21.8911 115.994 21.7611C116.505 21.6379 116.974 21.4634 117.399 21.2375L116.363 17.8088C116.077 18.0278 115.801 18.1373 115.535 18.1373C115.103 18.1373 114.887 17.8636 114.887 17.3161V14.3596H116.921V11.1158H114.887V7.17382H110.739V11.1158H109.144V14.3596H110.739V17.6446C110.739 18.9996 111.068 20.057 111.726 20.8166C112.391 21.5763 113.315 21.9561 114.498 21.9561Z" fill="#010101"/>
<path fill-rule="evenodd" clip-rule="evenodd" d="M45.9649 42.3638H41.8171V26.514H45.9649V27.1915C46.8157 26.5208 47.836 26.1855 49.0259 26.1855C50.003 26.1855 50.8738 26.4284 51.6382 26.9143C52.4092 27.4002 53.0141 28.064 53.4528 28.9058C53.8982 29.7476 54.1208 30.7023 54.1208 31.7699C54.1208 32.8238 53.9015 33.7717 53.4628 34.6134C53.0241 35.4552 52.4258 36.1224 51.6681 36.6152C50.917 37.1079 50.0695 37.3543 49.1256 37.3543C47.9756 37.3543 46.9221 36.9711 45.9649 36.2046V42.3638ZM46.4335 33.1865C46.7991 33.5561 47.2644 33.7409 47.8294 33.7409C48.3878 33.7409 48.8431 33.5595 49.1954 33.1968C49.5543 32.8272 49.7338 32.3584 49.7338 31.7904C49.7338 31.2224 49.551 30.7502 49.1854 30.3738C48.8198 29.9905 48.3645 29.7989 47.8194 29.7989C47.2744 29.7989 46.8157 29.9871 46.4435 30.3635C46.0713 30.7399 45.8851 31.2121 45.8851 31.7801C45.8851 32.3482 46.0679 32.817 46.4335 33.1865Z" fill="#010101"/>
<path fill-rule="evenodd" clip-rule="evenodd" d="M69.4288 36.2046C68.465 36.9711 67.428 37.3543 66.318 37.3543C65.3874 37.3543 64.5399 37.1148 63.7755 36.6357C63.0111 36.1498 62.4029 35.486 61.9509 34.6442C61.4989 33.7956 61.2729 32.8307 61.2729 31.7494C61.2729 30.7023 61.4856 29.7613 61.911 28.9263C62.343 28.0846 62.9379 27.4173 63.6957 26.9246C64.4535 26.4318 65.3276 26.1855 66.318 26.1855C67.5277 26.1855 68.5647 26.5208 69.4288 27.1915V26.514H73.5766V37.0258H69.4288V36.2046ZM66.2083 33.1865C66.5739 33.5561 67.0359 33.7409 67.5942 33.7409C68.1526 33.7409 68.6112 33.5561 68.9702 33.1865C69.3291 32.8101 69.5086 32.3379 69.5086 31.7699C69.5086 31.2019 69.3258 30.7331 68.9602 30.3635C68.6012 29.9871 68.1459 29.7989 67.5942 29.7989C67.0425 29.7989 66.5805 29.9871 66.2083 30.3635C65.8427 30.7331 65.6599 31.2019 65.6599 31.7699C65.6599 32.3379 65.8427 32.8101 66.2083 33.1865Z" fill="#010101"/>
<path d="M80.7239 37.3543C81.382 37.3543 82.0068 37.2585 82.5984 37.0669C83.1966 36.8821 83.6686 36.6631 84.0142 36.4099L82.6582 33.5355C82.5319 33.6245 82.3558 33.7066 82.1298 33.7819C81.9104 33.8504 81.6678 33.8846 81.4019 33.8846C80.7505 33.8846 80.2354 33.6724 79.8565 33.2481C79.4776 32.8238 79.2881 32.3311 79.2881 31.7699C79.2881 31.4688 79.3579 31.154 79.4975 30.8255C79.6438 30.497 79.8698 30.2198 80.1755 29.994C80.4879 29.7681 80.8901 29.6552 81.382 29.6552C81.9004 29.6552 82.3259 29.7715 82.6582 30.0042L84.0142 27.1299C83.6819 26.8698 83.2099 26.6474 82.5984 26.4626C81.9869 26.2779 81.3554 26.1855 80.704 26.1855C79.8731 26.1855 79.102 26.3429 78.3908 26.6577C77.6862 26.9656 77.0714 27.3865 76.5462 27.9203C76.0278 28.4473 75.6223 29.0461 75.3298 29.7168C75.044 30.3806 74.9011 31.0684 74.9011 31.7801C74.9011 32.5398 75.054 33.2584 75.3597 33.9359C75.6721 34.6066 76.0976 35.1985 76.636 35.7118C77.1744 36.2251 77.7926 36.6289 78.4905 36.9231C79.1951 37.2106 79.9396 37.3543 80.7239 37.3543Z" fill="#010101"/>
<path fill-rule="evenodd" clip-rule="evenodd" d="M93.2147 36.6152C92.3107 37.1079 91.3004 37.3543 90.1837 37.3543C89.0537 37.3543 88.0367 37.1079 87.1327 36.6152C86.2353 36.1224 85.5241 35.4552 84.999 34.6134C84.4738 33.7648 84.2113 32.8101 84.2113 31.7494C84.2113 30.6954 84.4705 29.751 84.989 28.9161C85.5075 28.0743 86.212 27.4105 87.1027 26.9246C87.9935 26.4318 88.9938 26.1855 90.1039 26.1855C91.1674 26.1855 92.098 26.4147 92.8957 26.8733C93.7 27.3249 94.3281 27.958 94.7801 28.7724C95.2321 29.5799 95.4581 30.5209 95.4581 31.5954C95.4581 31.6843 95.4548 31.7699 95.4481 31.852C95.4481 31.9273 95.4382 32.0984 95.4182 32.3653H88.4986C88.4986 32.8717 88.6681 33.2686 89.0071 33.5561C89.3461 33.8435 89.8181 33.9872 90.423 33.9872C90.7952 33.9872 91.1142 33.9188 91.3801 33.7819C91.6527 33.645 91.9684 33.3987 92.3273 33.0428L95.2986 34.5621C94.82 35.4312 94.1254 36.1156 93.2147 36.6152ZM89.9942 29.1214C89.0902 29.1214 88.6316 29.532 88.6183 30.3532H91.41C91.2837 29.532 90.8118 29.1214 89.9942 29.1214Z" fill="#010101"/>
</svg>
